<?xml version="1.0" encoding="UTF-8" standalone="no"?>
<!DOCTYPE svg PUBLIC "-//W3C//DTD SVG 1.1//EN" "http://www.w3.org/Graphics/SVG/1.1/DTD/svg11.dtd">
<svg width="100%" height="100%" viewBox="0 0 560 400" version="1.1" xmlns="http://www.w3.org/2000/svg" xmlns:xlink="http://www.w3.org/1999/xlink" xml:space="preserve" xmlns:serif="http://www.serif.com/" style="fill-rule:evenodd;clip-rule:evenodd;stroke-linejoin:round;stroke-miterlimit:2;">
    <g transform="matrix(1,0,0,1,100.863,168)">
        <path d="M72.309,17.868C59.294,17.868 49.125,27.748 49.125,40.974C49.125,54.201 59.037,63.997 72.309,63.997C85.582,63.997 95.667,54.032 95.667,40.89C95.667,27.832 85.754,17.868 72.309,17.868ZM72.397,54.465C64.985,54.465 59.554,48.708 59.554,40.978C59.554,33.159 64.898,27.406 72.309,27.406C79.809,27.406 85.237,33.247 85.237,40.978C85.237,48.708 79.809,54.465 72.397,54.465ZM98.509,27.92L104.974,27.92L104.974,63.141L115.316,63.141L115.316,18.726L98.509,18.726L98.509,27.92ZM23.097,27.403C28.528,27.403 32.837,30.753 34.473,35.735L45.42,35.735C43.436,25.084 34.646,17.868 23.185,17.868C10.17,17.868 0,27.748 0,40.978C0,54.208 9.913,64 23.185,64C34.389,64 43.352,56.783 45.336,46.045L34.473,46.045C32.922,51.027 28.613,54.465 23.182,54.465C15.682,54.465 10.427,48.708 10.427,40.978C10.43,33.159 15.601,27.403 23.097,27.403ZM295.013,36.682L287.429,35.566C283.81,35.052 281.224,33.849 281.224,31.013C281.224,27.92 284.587,26.375 289.153,26.375C294.152,26.375 297.342,28.522 298.031,32.044L308.029,32.044C306.907,23.11 300.012,17.871 289.413,17.871C278.466,17.871 271.227,23.455 271.227,31.358C271.227,38.916 275.968,43.3 285.533,44.672L293.117,45.788C296.825,46.301 298.893,47.765 298.893,50.513C298.893,54.035 295.274,55.496 290.275,55.496C284.154,55.496 280.707,53.004 280.19,49.225L270.02,49.225C270.97,57.902 277.777,64 290.187,64C301.479,64 308.975,58.845 308.975,49.996C308.975,42.093 303.547,37.969 295.013,36.682ZM110.145,0.429C106.353,0.429 103.508,3.177 103.508,6.956C103.508,10.736 106.35,13.484 110.145,13.484C113.937,13.484 116.783,10.736 116.783,6.956C116.783,3.177 113.937,0.429 110.145,0.429ZM261.919,33.933C261.919,24.313 256.059,17.871 243.648,17.871C231.927,17.871 225.377,23.8 224.083,32.906L234.34,32.906C234.857,29.384 237.615,26.463 243.476,26.463C248.735,26.463 251.32,28.782 251.32,31.618C251.32,35.312 246.578,36.256 240.718,36.857C232.789,37.716 222.964,40.464 222.964,50.773C222.964,58.764 228.912,63.915 238.393,63.915C245.804,63.915 250.458,60.823 252.787,55.925C253.132,60.306 256.407,63.141 260.976,63.141L267.009,63.141L267.009,53.951L261.922,53.951L261.922,33.933L261.919,33.933ZM251.749,45.102C251.749,51.03 246.578,55.411 240.285,55.411C236.406,55.411 233.131,53.778 233.131,50.344C233.131,45.963 238.389,44.76 243.216,44.246C247.87,43.817 250.455,42.786 251.749,40.809L251.749,45.102ZM196.849,17.868C191.073,17.868 186.247,20.274 182.8,24.31L182.8,0L172.458,0L172.458,63.141L182.627,63.141L182.627,57.301C186.074,61.509 190.989,64 196.849,64C209.259,64 218.655,54.208 218.655,40.978C218.655,27.748 209.087,17.868 196.849,17.868ZM195.298,54.465C187.886,54.465 182.455,48.708 182.455,40.978C182.455,33.247 187.971,27.406 195.382,27.406C202.882,27.406 208.137,33.163 208.137,40.978C208.137,48.708 202.709,54.465 195.298,54.465ZM147.721,17.868C140.999,17.868 136.602,20.616 134.017,24.483L134.017,18.726L123.759,18.726L123.759,63.138L134.101,63.138L134.101,39C134.101,32.213 138.41,27.403 144.788,27.403C150.736,27.403 154.44,31.611 154.44,37.713L154.44,63.141L164.782,63.141L164.782,36.942C164.786,25.77 159.013,17.868 147.721,17.868ZM358.275,39.518C358.275,26.805 348.967,17.871 336.469,17.871C323.197,17.871 313.457,27.836 313.457,40.978C313.457,54.809 323.886,64 336.642,64C347.416,64 355.862,57.642 358.015,48.624L347.24,48.624C345.689,52.575 341.897,54.809 336.811,54.809C330.173,54.809 325.174,50.686 324.055,43.469L358.272,43.469L358.272,39.518L358.275,39.518ZM324.66,36.08C326.3,29.894 330.953,26.889 336.297,26.889C342.157,26.889 346.639,30.239 347.673,36.08L324.66,36.08Z" style="fill:rgb(0,82,255);fill-rule:nonzero;"/>
    </g>
</svg>
