<svg xmlns="http://www.w3.org/2000/svg" viewBox="0 155 560 130">
  <g fill-rule="nonzero" transform="matrix(.439343 0 0 .439631 55.0562 152.3)">
    <path d="m845.92 106.627c0-23.847-3.619-33.422-26.825-33.422-18.524 0-23.846 5.322-23.846 33.422 0 25.335 0 40.026 23.846 40.026 26.825 0 26.825-13.416 26.825-40.026m-262.504-33.422c-23.205 0-24.694 4.894-24.694 24.694h50.03c0-22.992-3.406-24.694-25.336-24.694m143.492 33.422c0-23.847-3.191-33.422-26.397-33.422-18.524 0-23.846 5.322-23.846 33.422 0 25.335-.634 40.026 23.846 40.026 27.466 0 26.397-13.416 26.397-40.026m279.182-100.267h-251.929v159.452h-26.825l1.061-16.822h-.847c-6.811 14.691-19.159 18.097-34.919 18.097-41.508 0-42.791-26.183-42.791-60.46 0-32.789 4.475-53.863 42.791-53.863 13.63 0 27.894 2.557 33.643 16.18h1.062v-62.584h-140.101s-15.466 0-20.522 14.618l-12.436 35.95c7.239-2.779 16.667-4.164 29.139-4.164 45.991 0 52.16 13.416 52.16 62.163h-76.854c0 24.06.641 31.726 24.694 31.726 14.905 0 25.336.214 25.336-16.394h26.824c0 35.125-20.219 36.828-52.16 36.828-39.024 0-49.69-11.411-51.268-46.189l-26.058 75.336s-5.057 14.624 10.408 14.624h272.382c-10.534-4.843-16.741-14.543-15.768-33.547h25.122c0 15.325 5.743 17.669 20.861 17.669 22.778 0 27.68-4.688 27.68-23.846v-21.289h-.641c-7.025 14.691-21.289 17.242-34.919 17.242-38.316 0-42.791-21.075-42.791-53.863 0-34.277 1.275-60.46 42.791-60.46 15.76 0 28.108 3.405 34.919 18.096h.847l-1.061-16.821h26.825v111.559c0 26.021-5.404 39.179-20.235 45.26h82.847s15.473 0 20.53-14.624l10.725-31.005c-7.806 1.629-17.249 1.858-28.085 1.858-42.791 0-51.519-13.622-51.519-56.841 0-40.027 6.391-57.482 51.519-57.482 39.703 0 49.713 10.054 51.711 44.162l26.272-75.948s5.06-14.618-10.42-14.618m-92.257 91.539h50.03c0-22.992-3.406-24.694-25.336-24.694-23.205 0-24.694 4.894-24.694 24.694m50.03 32.36h14.846l5.3-15.332h-70.176c0 24.06.641 31.726 24.694 31.726 14.905 0 25.336.214 25.336-16.394" fill="#e8473a"/>
    <path d="m105.699 84.485c0-31.299-26.184-31.719-48.114-31.719-28.741 0-50.885.634-50.885 31.291 0 28.528 7.453 34.064 48.541 34.705 27.039.428 27.68 5.322 27.68 15.112 0 15.332-9.369 14.905-25.336 14.905-19.799 0-23.632-1.917-24.06-18.097h-26.825c0 36.407 20.441 36.407 50.885 36.407 28.314 0 52.161-2.978 52.161-33.215 0-36.187-23.419-34.27-49.824-35.553-23.411-1.061-26.397-1.489-26.397-12.561 0-14.691 9.797-14.691 24.06-14.691 14.264 0 21.289 0 21.289 13.416zm72.593-31.719c-46.624 0-52.58 13.836-52.58 57.268 0 43.219 5.956 57.055 52.58 57.055 46.625 0 52.588-13.836 52.588-57.055 0-43.432-5.963-57.268-52.588-57.268m0 20.433c23.847 0 25.764 6.812 25.764 37.049 0 29.803-1.917 36.4-25.764 36.4-23.839 0-25.755-6.597-25.755-36.4 0-30.237 1.916-37.049 25.755-37.049m102.19-67.057h-26.824v159.672h26.824zm73.877 109.428c13.195 0 24.694.42 24.694 15.967 0 15.966-10.43 17.242-24.694 17.242-18.097 0-24.488-1.489-24.488-17.242 0-15.967 10.858-15.967 24.488-15.967m24.694 50.244h26.825v-70.043c0-37.469-14.905-43.005-50.671-43.005-25.542 0-47.9 1.275-47.9 33.849h26.825c0-14.477 9.369-15.546 21.075-15.546 22.357 0 23.846 6.391 23.846 24.488v14.477h-.855c-6.384-12.561-19.8-12.774-33.422-12.774-27.68 0-41.73 7.452-41.73 34.277 0 30.23 16.394 35.552 41.73 35.552 12.988 0 29.383-.427 34.705-15.332h.634zm51.519-111.773v111.773h26.825v-68.982c-.428-14.477 4.26-23.633 20.227-23.633 12.561 0 13.622 6.605 13.622 17.883v5.75h25.122v-8.941c0-21.075-5.75-35.125-29.375-35.125-12.989 0-24.488 3.619-29.81 15.966h-1.062l.634-14.691z" fill="#ffffff"/>
  </g>
</svg>