<svg xmlns="http://www.w3.org/2000/svg" viewBox="0 0 64 64">
  <rect width="64" height="64" rx="14" fill="#000000"/>
  <!-- Tesla "T" mark: top crossbar + vertical stem with crown -->
  <g fill="#E31937">
    <path d="M32 18.5c-7.6 0-14 1.6-14.8 4.1.4-1 .9-1.8 1.6-2.5 3.1-3 8-4.6 13.2-4.6s10.1 1.6 13.2 4.6c.7.7 1.2 1.6 1.6 2.5-.8-2.5-7.2-4.1-14.8-4.1z"/>
    <path d="M32 22.4c-3.6 0-7 .3-9.7 1l1.9 2.2c2.3-.4 5-.6 7.8-.6s5.5.2 7.8.6l1.9-2.2c-2.7-.7-6.1-1-9.7-1z"/>
    <path d="M29.5 27.2v20.3h5V27.2c-.8 0-1.6-.1-2.5-.1s-1.7.1-2.5.1z"/>
  </g>
</svg>
