<svg xmlns="http://www.w3.org/2000/svg" viewBox="0 0 342 35" fill="#E31937" aria-label="Tesla">
  <path d="M0 .1a9.7 9.7 0 0 0 4.8 1.3c3.4 0 5.3-1.3 5.3-1.3v7.9s-2 1.3-5.3 1.3C1.7 9.3 0 7.8 0 7.8V.1z"/>
  <path d="M171 0c-9.6 0-17.4 7.8-17.4 17.4 0 9.6 7.8 17.5 17.4 17.5s17.4-7.8 17.4-17.5C188.4 7.8 180.6 0 171 0zm0 5.4c6.6 0 12 5.4 12 12s-5.4 12-12 12-12-5.4-12-12 5.4-12 12-12z" opacity="0"/>
  <text x="0" y="26" font-family="'Helvetica Neue', Arial, sans-serif" font-size="30" font-weight="700" letter-spacing="6" fill="#E31937">TESLA</text>
</svg>
