<svg xmlns="http://www.w3.org/2000/svg" viewBox="0 0 342 35" fill="currentColor">
  <path d="M0 .1a9.7 9.7 0 0 0 4.8 1.3c3.4 0 5.3-1.3 5.3-1.3v7.9s-2 1.3-5.3 1.3C1.7 9.3 0 7.8 0 7.8V.1zm0 10.2s1.7 1.5 4.8 1.5c3.4 0 5.3-1.3 5.3-1.3v7.9s-2 1.3-5.3 1.3c-3.1 0-4.8-1.5-4.8-1.5v-7.9zm0 10.2s1.7 1.5 4.8 1.5c3.4 0 5.3-1.3 5.3-1.3V28s-2 1.3-5.3 1.3c-3.1 0-4.8-1.5-4.8-1.5v-7.3z"/>
  <text x="0" y="28" font-family="Arial, Helvetica, sans-serif" font-size="32" font-weight="bold" letter-spacing="8" fill="currentColor">TESLA</text>
</svg>