<svg xmlns="http://www.w3.org/2000/svg" viewBox="0 0 100 120" fill="#e82127">
  <!-- Tesla T icon -->
  <path d="M50 10 C50 10 30 10 15 18 L15 28 C28 22 38 20 50 20 C62 20 72 22 85 28 L85 18 C70 10 50 10 50 10Z"/>
  <path d="M45 24 L45 24 C45 24 45 30 45 30 L47 30 L47 95 C47 97 48 98 50 98 C52 98 53 97 53 95 L53 30 L55 30 C55 30 55 24 55 24 Z"/>
  <!-- TESLA text -->
  <text x="50" y="115" text-anchor="middle" font-family="Arial, sans-serif" font-size="14" font-weight="bold" letter-spacing="4" fill="#e82127">TESLA</text>
</svg>