<svg clip-rule="evenodd" fill-rule="evenodd" stroke-linejoin="round" stroke-miterlimit="2" viewBox="0 0 560 400" xmlns="http://www.w3.org/2000/svg"><g fill="currentColor" fill-rule="nonzero" transform="matrix(1.45502 0 0 1.45502 61.7576 154.865)"><path d="m169.06 56.76v3.071c0 .865-.012.877-.851.877h-11.732c-.803 0-.815-.024-.827-.818v-58.633c0-1.269-.108-1.162 1.163-1.162h11.12c.204 0 .408.012.612 0 .359-.012.551.118.527.498-.012.225 0 .462 0 .687v25.263c.348-.036.564-.261.78-.451 1.008-.948 2.135-1.719 3.359-2.359.587-.308 1.211-.51 1.835-.747.9-.344 1.859-.64 2.795-.794 1.559-.249 3.155-.344 4.75-.178 1.535.154 2.999.545 4.438 1.008 1.212.391 2.375.936 3.491 1.624 1.655 1.031 3.095 2.264 4.39 3.687 1.044 1.15 1.835 2.465 2.579 3.817.78 1.411 1.212 2.928 1.679 4.457.804 2.656.792 5.347.576 8.05-.072.901-.36 1.825-.588 2.726-.3 1.162-.623 2.312-1.163 3.379-.84 1.671-1.751 3.307-3.023 4.742-1.092 1.233-2.327 2.288-3.623 3.272-.587.45-1.247.817-1.931 1.126-1.691.77-3.394 1.482-5.278 1.766-1.415.213-2.819.285-4.234.261-2.903-.048-5.53-.949-7.941-2.549-.803-.533-1.391-1.268-2.051-1.944-.24-.261-.396-.593-.852-.676zm-.359-14.794c0 .367-.024.687 0 .995.239 2.478 1.295 4.529 3.418 5.928 1.488.984 3.179 1.375 4.954 1.517.984.083 1.883-.201 2.795-.403 1.212-.273 2.387-.77 3.287-1.636 1.247-1.197 2.195-2.572 2.519-4.351.492-2.631.18-5.038-1.44-7.231-1.091-1.482-2.531-2.478-4.33-2.904-2.099-.498-4.15-.463-6.213.308-1.464.545-2.627 1.434-3.479 2.667-1.044 1.553-1.691 3.248-1.511 5.11z"/><path d="m54.386 36.062c0 3.722-.036 7.445.012 11.167.024 1.743-.24 3.426-.839 5.038-.444 1.198-1.116 2.3-1.932 3.32-1.451 1.813-3.226 3.224-5.338 4.244-2.998 1.458-6.165 2.003-9.476 1.719-1.847-.155-3.49-.913-5.11-1.731-1.475-.747-2.699-1.838-3.922-2.917-.48-.426-.48-.45-.972-.023-.743.628-1.427 1.328-2.219 1.897-.684.497-1.463.912-2.219 1.292-.972.486-1.943.96-3.011 1.209-.504.118-1.019.225-1.535.273-1.703.154-3.431.106-5.098-.214-2.183-.415-4.246-1.256-6.118-2.43-1.715-1.067-3.154-2.49-4.282-4.149-.768-1.126-1.223-2.43-1.679-3.723-.528-1.493-.552-3.011-.552-4.552v-23.365c.024-.652.024-.664.696-.664h11.299c.72 0 .72.012.72.901v19.406c0 .948-.048 1.897.024 2.833.084 1.292.528 2.43 1.643 3.236.636.463 1.416.593 2.123.629 1.056.047 2.136-.143 2.999-.889.744-.652 1.104-1.494 1.236-2.466.12-.913.12-1.826.12-2.739v-19.832c0-1.221 0-1.079 1.079-1.079h11.216c.324 0 .48.189.503.474.024.261.024.51.024.771v20.864c0 .545-.024 1.09.036 1.624.18 1.505.996 2.75 2.711 3.106 1.08.225 2.052.095 3.047-.214.552-.166.96-.498 1.26-.972.599-.913.839-1.908.839-2.999-.012-4.694-.012-9.389-.012-14.083v-7.73c0-.853.012-.865.864-.865h11.036c.803 0 .815.012.815.806.012 4.303.012 8.571.012 12.827z"/><path d="m90.54 26.637v-2.513c0-.865 0-.865.923-.865h11.636c1.031 0 .947-.012.947.925v35.789c-.024.782-.072.842-.839.842-1.356.011-2.723 0-4.079 0h-7.557c-.935 0-1.031-.107-1.031-1.044v-2.94c-.504.226-.708.629-.972.925-1.043 1.174-2.327 2.015-3.718 2.727-1.128.569-2.339.865-3.575 1.15-1.703.391-3.407.355-5.086.225-1.943-.154-3.862-.569-5.638-1.447-.791-.391-1.631-.735-2.375-1.221-2.111-1.363-3.946-2.999-5.398-5.085-.767-1.115-1.463-2.241-1.991-3.474-.563-1.327-1.115-2.655-1.403-4.09-.36-1.778-.504-3.556-.468-5.358.036-2.039.348-4.03 1.02-5.963.563-1.612 1.175-3.224 2.159-4.623.899-1.28 1.823-2.537 3.011-3.604 1.475-1.339 3.07-2.478 4.882-3.319 1.247-.581 2.579-.925 3.922-1.269 1.439-.367 2.891-.509 4.354-.474 2.591.071 5.038.723 7.377 1.849 1.428.7 2.591 1.731 3.899 2.857zm-8.181 23.781c1.272.059 2.435-.356 3.611-.723 1.703-.522 2.926-1.672 3.85-3.106.624-.96.924-2.051 1.08-3.201.407-3.023-.312-5.631-2.591-7.777-.84-.794-1.824-1.351-2.903-1.635-2.219-.569-4.426-.581-6.634.248-1.331.498-2.423 1.304-3.19 2.383-1.416 1.992-2.195 4.221-1.716 6.757.156.818.42 1.589.72 2.36.444 1.138 1.176 2.086 2.147 2.833 1.656 1.256 3.599 1.683 5.626 1.861z"/><path d="m226.301 61.905c-1.979.166-3.922-.213-5.853-.557-1.644-.296-3.191-.913-4.738-1.517-1.92-.759-3.635-1.838-5.23-3.094-1.02-.818-1.955-1.743-2.783-2.786-.744-.937-1.38-1.944-1.967-2.988-.708-1.28-1.152-2.667-1.5-4.078-.396-1.612-.707-3.236-.696-4.896.013-1.387.228-2.762.54-4.125.216-.949.468-1.873.756-2.798.324-1.031.756-2.015 1.368-2.916.527-.783.935-1.636 1.595-2.335.9-.961 1.787-1.909 2.831-2.739 1.811-1.446 3.814-2.537 5.961-3.378 1.044-.404 2.124-.7 3.215-.961.864-.201 1.775-.189 2.591-.581.072-.035.168-.035.252-.035 1.044-.071 2.075-.131 3.119-.202 1.511-.095 3.034-.023 4.498.237 2.495.463 5.026.925 7.341 2.063 1.259.628 2.531 1.245 3.682 2.051.864.605 1.716 1.28 2.448 2.027 1.415 1.458 2.65 3.047 3.562 4.896.756 1.518 1.224 3.094 1.583 4.742.516 2.324.516 4.671.216 6.982-.324 2.454-1.103 4.813-2.423 6.959-1.295 2.122-2.938 3.936-4.942 5.394-1.643 1.197-3.418 2.181-5.35 2.893-1.235.462-2.483.936-3.766 1.161-1.703.297-3.407.652-5.158.581-.396-.012-.78 0-1.152 0zm-8.432-19.548c-.048.604.12 1.47.348 2.335.432 1.601 1.367 2.905 2.627 3.9 1.463 1.174 3.262 1.624 5.11 1.79.815.072 1.631.012 2.471-.249.587-.177 1.211-.343 1.811-.521.84-.261 1.583-.723 2.195-1.316 1.212-1.197 2.099-2.596 2.435-4.315.42-2.051.252-4.007-.672-5.904-1.115-2.264-2.903-3.722-5.386-4.267-1.379-.309-2.794-.332-4.21-.095-1.307.225-2.495.675-3.526 1.482-2.268 1.742-3.227 4.089-3.203 7.16z"/><path d="m249.044 23.33c.276-.119.564-.071.852-.071 5.062 0 10.136.012 15.198-.012.6 0 1.032.154 1.427.605 1.464 1.683 2.975 3.319 4.403 5.038.455.557.971 1.055 1.451 1.588.252.285.48.249.732-.011.468-.51.935-1.008 1.391-1.518 1.176-1.28 2.231-2.679 3.479-3.912.408-.403.756-.865 1.079-1.339.24-.356.54-.487.948-.463.144.012.288 0 .432 0h16.157c0 .64-.491.937-.791 1.233-1.08 1.067-1.992 2.288-3.095 3.331-.516.486-.936 1.079-1.416 1.612-1.571 1.731-3.166 3.462-4.75 5.193-1.607 1.754-3.202 3.497-4.81 5.251-.384.415-.372.617 0 1.02 1.392 1.482 2.771 2.964 4.151 4.445 1.919 2.051 3.85 4.078 5.757 6.141 1.62 1.743 3.167 3.545 4.834 5.228 1.008 1.02 1.872 2.17 2.951 3.118.108.095.204.201.3.308.132.131.204.285.144.462-.072.214-.252.202-.432.202h-.612c-4.918 0-9.848-.036-14.766.024-1.067.012-1.799-.332-2.459-1.091-.443-.522-.851-1.091-1.319-1.577-.792-.829-1.512-1.719-2.267-2.572-1.38-1.577-2.771-3.13-4.163-4.683-.359-.403-.659-1.055-1.115-1.102-.516-.048-.732.687-1.08 1.079-1.775 1.979-3.538 3.959-5.302 5.963-.947 1.066-1.883 2.157-2.806 3.248-.432.509-.912.758-1.632.747-5.122-.036-10.256-.012-15.378-.024-.299 0-.719.154-.887-.154-.204-.38.216-.617.432-.842 1.571-1.707 3.166-3.39 4.75-5.086 1.283-1.375 2.591-2.738 3.85-4.137 1.2-1.339 2.459-2.632 3.695-3.936 1.175-1.244 2.303-2.548 3.466-3.805.66-.711 1.356-1.387 2.003-2.122.24-.273.264-.403.012-.699-1.259-1.447-2.567-2.846-3.826-4.28-1.176-1.328-2.363-2.644-3.527-3.971-1.535-1.767-3.094-3.509-4.678-5.24-.863-.948-1.619-2.004-2.603-2.857-.072-.047-.204-.166-.18-.332z"/><path d="m125.062 30.49v29.364c0 1.126.096 1.02-1.02 1.02h-11.551c-.168 0-.348-.012-.516 0-.336.012-.48-.142-.456-.463.012-.201 0-.403 0-.604v-58.633c0-1.186-.108-1.067 1.068-1.067h11.467c.204 0 .408.012.612 0 .288-.012.42.13.42.415v.687c-.024 9.768-.024 19.525-.024 29.281z"/><path d="m133.747 30.395v-29.53c.011-.735.011-.746.779-.746h11.815c1.068 0 .972-.06.972.983v58.978c0 .782-.012.794-.816.794h-11.899c-.144 0-.288-.012-.432 0-.3.012-.408-.154-.408-.427v-.688c-.011-9.792-.011-19.572-.011-29.364z"/></g></svg>